<svg xmlns="http://www.w3.org/2000/svg" viewBox="1.2 12 177.7 28">
	<path d="M1.2 40 1.2 35.52 2.04 34.96 2.04 17.04 1.2 16.48 1.2 12 7.4 12 13.24 26.96 13.24 17.04 12.4 16.48 12.4 12 19.12 12 19.12 16.48 18.28 17.04 18.28 40 12.92 40 7.08 25.04 7.08 34.96 7.92 35.52 7.92 40 1.2 40ZM29.286 40 25.566 36.28 25.566 15.72 29.286 12 38.366 12 42.086 15.72 42.086 36.28 38.366 40 29.286 40ZM31.366 34.96 36.286 34.96 37.046 34.2 37.046 17.8 36.286 17.04 31.366 17.04 30.606 17.8 30.606 34.2ZM53.212 40 48.572 17.04 47.732 16.48 47.732 12 52.692 12 56.692 31.76 60.692 12 65.652 12 65.652 16.48 64.812 17.04 60.172 40 53.212 40ZM70.498 40 70.498 35.52 71.338 34.96 74.978 17.04 74.138 16.48 74.138 12 84.778 12 84.778 16.48 83.938 17.04 87.578 34.96 88.418 35.52 88.418 40 83.458 40 82.218 33.84 76.698 33.84 75.458 40 70.498 40ZM77.738 28.8 81.178 28.8 79.458 20.24ZM99.104 40 99.104 35.52 99.944 34.96 99.944 17.04 99.104 17.04 98.544 17.88 94.064 17.88 94.064 12 110.864 12 110.864 17.88 106.384 17.88 105.824 17.04 104.984 17.04 104.984 34.96 105.824 35.52 105.824 40 99.104 40ZM117.31 40 117.31 35.52 118.15 34.96 118.15 17.04 117.31 16.48 117.31 12 131.87 12 131.87 17.88 127.39 17.88 126.83 17.04 123.19 17.04 123.19 23.48 129.63 23.48 129.63 28.52 123.19 28.52 123.19 34.96 126.83 34.96 127.39 34.12 131.87 34.12 131.87 40 117.31 40ZM142.036 40 138.316 36.28 138.316 15.72 142.036 12 150.836 12 154.556 15.72 154.556 20.96 149.516 20.96 149.516 17.8 148.756 17.04 144.116 17.04 143.356 17.8 143.356 34.2 144.116 34.96 148.756 34.96 149.516 34.2 149.516 31.04 154.556 31.04 154.556 36.28 150.836 40 142.036 40ZM161.002 40 161.002 35.52 161.842 34.96 161.842 17.04 161.002 16.48 161.002 12 167.722 12 167.722 16.48 166.882 17.04 166.882 23.48 173.042 23.48 173.042 17.04 172.202 16.48 172.202 12 178.922 12 178.922 16.48 178.082 17.04 178.082 34.96 178.922 35.52 178.922 40 172.202 40 172.202 35.52 173.042 34.96 173.042 28.52 166.882 28.52 166.882 34.96 167.722 35.52 167.722 40 161.002 40Z" fill="#"/>
</svg>