<svg xmlns="http://www.w3.org/2000/svg" class="ionicon" viewBox="0 0 512 512">
	<path d="M10.38 46.92V23.64L8.94 23.22C8.46 23.04 8.1 22.56 8.1 22.08V16.14C8.1 15.72 8.52 15 9 15H21.48C21.9 15 22.2 15.48 22.32 15.78L25.86 24.36 29.7 21.48V22.2L26.16 24.9C26.22 25.2 26.28 25.44 26.4 25.62L29.76 23.16C29.82 23.34 29.82 23.58 29.94 23.76L26.64 26.22 26.94 26.94 30.54 24.24S30.96 24.36 31.26 24.42L27.18 27.48 28.02 29.46 32.16 26.4V26.94 27.12L28.32 30C28.32 30.18 28.5 30.6 28.56 30.72L32.16 28.08V28.62 28.74L28.8 31.26V31.32L29.1 32.04 32.22 29.7V30.42L29.34 32.58C29.34 32.7 29.52 33.12 29.7 33.24L32.22 31.32C32.22 31.44 32.22 31.92 32.28 32.04L29.82 33.84 30.12 34.56H30.18L32.28 33V33.66L30.42 35.04C30.42 35.28 30.6 35.7 30.72 35.82L32.28 34.62V35.34L30.96 36.36C30.96 36.48 31.08 36.9 31.2 37.08L32.34 36.3V36.78 36.96L31.44 37.62C31.5 37.8 31.68 38.22 31.74 38.34L32.34 37.92C32.4 38.1 32.4 38.22 32.4 38.4 32.4 38.46 32.4 38.58 32.34 38.64 32.34 38.64 32.04 38.88 31.98 38.94L32.28 39.66 32.4 39.54V39.96 40.08L33.42 42.54 33.06 23.76C33.06 23.64 33.06 23.64 33 23.64 31.98 23.34 30.72 23.28 30.72 21.96V16.2C30.72 15.72 31.14 15 31.68 15H42.6C43.08 15 43.5 15.66 43.5 16.08V22.08C43.5 22.62 43.14 23.04 42.66 23.22L41.16 23.64V54.42C41.16 54.96 40.74 55.62 40.2 55.62H30.18C29.76 55.62 29.4 55.14 29.22 54.78L18.18 28.02C18.18 28.68 18.24 31.2 18.36 31.8 18.42 31.92 18.54 32.22 18.54 32.22V32.28C18.48 32.28 18.36 32.4 18.3 32.58V33.42L18.84 33C18.9 33.18 19.08 33.54 19.08 33.54L18.3 34.14V34.26 35.04H18.36C18.48 34.92 19.14 34.44 19.38 34.32 19.44 34.44 19.56 34.68 19.56 34.86L18.36 35.76V35.94 36.72L19.92 35.58C19.92 35.7 20.04 36 20.1 36.12L18.36 37.44V37.62C18.36 37.92 18.36 38.1 18.42 38.34L20.4 36.84C20.46 36.96 20.64 37.32 20.64 37.44L18.42 39.06V39.3 40.02L20.88 38.16C21 38.22 21.12 38.58 21.12 38.7L18.42 40.74V41.04S18.42 41.46 18.48 41.64L21.48 39.42C21.54 39.54 21.66 39.84 21.66 39.96L18.48 42.36V43.32L22.02 40.68 22.2 41.16C22.2 41.22 22.14 41.22 22.14 41.28L18.54 43.98C18.48 43.98 18.48 43.98 18.48 44.04 18.48 44.22 18.48 44.82 18.54 44.94L22.5 41.94C22.56 42 22.68 42.36 22.68 42.54L18.54 45.66V45.9 46.8 46.92L19.74 47.34 23.52 44.52C23.64 44.7 23.82 45.06 23.82 45.06L20.4 47.58C20.58 47.76 20.7 47.94 20.82 48.18L24.06 45.84C24.18 45.96 24.3 46.32 24.3 46.32L20.94 48.9V49.8L24.54 47.1C24.66 47.16 24.78 47.46 24.84 47.58L20.94 50.58V54.42C20.94 54.96 20.46 55.62 19.92 55.62H9.06C8.52 55.62 8.1 54.96 8.1 54.48V48.42C7.74 48.54 7.38 48.78 7.2 49.14L5.34 50.58V49.8L9.42 46.74V47.28ZM4.5 19.38 3 20.52C3.06 20.04 3.42 19.38 3.96 19.38H4.5ZM3 21.48 5.76 19.38H6.78L3 22.2V21.48ZM26.82 19.38 25.68 20.22C25.68 19.8 26.34 19.38 26.82 19.38ZM25.62 21.96V21.24L28.08 19.38H29.04ZM25.62 22.92 29.7 19.8V20.52L25.62 23.64V22.92ZM3 23.88V23.16L7.08 20.04V20.82ZM3 24.84 7.08 21.72V22.5L3 25.56V24.84ZM3 26.46 7.14 23.4C7.2 23.4 7.44 23.88 7.44 23.94L3.18 27.06C3.12 27.12 3 26.58 3 26.52V26.46ZM4.44 27.78 3.78 27.6 8.1 24.36C8.46 24.36 8.82 24.48 8.82 24.48L8.88 24.54 4.56 27.72C4.5 27.78 4.44 27.78 4.44 27.78ZM27.78 27.96 32.1 24.72V25.26 25.44L28.02 28.56 27.96 28.44V28.02S27.84 28.02 27.78 27.96ZM5.34 28.08 9.42 25.02V25.74L5.34 28.86V28.08ZM5.34 30.54V29.76L9.42 26.7V27.42ZM5.34 32.22V31.44L9.42 28.38V29.1ZM5.34 33.12 9.42 30.06V30.72L5.34 33.78V33.12ZM5.34 34.74 9.42 31.68V32.4L5.34 35.46V34.74ZM5.34 37.14V36.42L9.42 33.36V34.08ZM5.34 38.1 9.42 35.04V35.76L5.34 38.82V38.1ZM5.34 39.78 9.42 36.72V37.44L5.34 40.5V39.78ZM5.34 42.18V41.46L9.42 38.34V39.12ZM5.34 43.86V43.14L9.42 40.02V40.8ZM5.34 44.82 9.42 41.7V42.48L5.34 45.54V44.82ZM18.84 46.38 23.04 43.2C23.1 43.26 23.22 43.62 23.28 43.8L19.08 46.92C18.96 46.74 18.84 46.38 18.84 46.38ZM5.34 47.22V46.5L9.42 43.38V44.1ZM5.34 48.9V48.12L9.42 45.06V45.78ZM20.94 51.48 25.14 48.36S25.32 48.66 25.38 48.9L21.24 52.02C21.12 51.84 20.94 51.48 20.94 51.48ZM21.72 53.34 21.48 52.74 25.68 49.62C25.8 49.86 25.92 50.16 25.92 50.16ZM3 53.22 7.08 50.16V50.88L3 53.94V53.22ZM22.2 54.6 22.02 54.06 26.22 50.88C26.28 51.12 26.46 51.42 26.46 51.42ZM3 55.62V54.9L7.02 51.9 7.08 51.84V52.5ZM22.56 55.32 26.7 52.2C26.82 52.38 26.94 52.74 26.94 52.74L22.74 55.86C22.74 55.8 22.56 55.44 22.56 55.32ZM23.1 56.58 27.3 53.46S27.42 53.82 27.42 54.06L23.28 57.18C23.22 57.06 23.1 56.7 23.1 56.58ZM3 56.52 7.08 53.46V54.18L3 57.3V56.52ZM23.64 57.84 27.78 54.78C27.9 54.96 28.02 55.32 28.02 55.32L23.82 58.44C23.76 58.32 23.64 57.96 23.64 57.84ZM3 58.92V58.2L7.02 55.2C7.14 55.38 7.2 55.62 7.2 55.8 7.14 55.8 7.14 55.86 7.14 55.86L3.06 58.92H3ZM24.12 59.16 28.26 56.04H28.32L28.68 56.4 24.42 59.58C24.3 59.52 24.12 59.34 24.12 59.16ZM3.36 59.64 7.56 56.46C7.68 56.46 7.8 56.58 7.86 56.58 8.04 56.64 8.16 56.64 8.34 56.64L3.9 59.94C3.66 59.94 3.48 59.82 3.36 59.64ZM6.12 60H5.1L9.6 56.64H10.56ZM7.38 60 11.82 56.64H12.78L8.34 60H7.38ZM9.6 60 14.04 56.64H15L10.56 60H9.6ZM25.14 60 29.64 56.64H30.6L26.16 60H25.14ZM27.42 60 31.86 56.64H32.82L28.38 60H27.42ZM29.64 60 34.08 56.64H35.1L30.6 60H29.64ZM32.88 60H31.86L36 56.88H36.06V57.6ZM11.82 60 15.78 57V57.72L12.78 60H11.82ZM35.1 60H34.14L36.06 58.56C36.06 58.8 36.06 59.22 35.88 59.4ZM14.88 60H14.04L15.78 58.68C15.78 59.28 15.42 60 14.88 60Z" fill="currentColor"/>
</svg>