<?xml version="1.0" encoding="UTF-8"?>
<svg xmlns="http://www.w3.org/2000/svg" viewBox="0 0 574.51 545.99">
  <defs>
    <style>

      .cls-2 {
        fill: #134663;
      }

      .cls-3 {
        fill: #aed7e3;
      }

    </style>
  </defs>
    <rect class="cls-3" x=".93" width="572.04" height="148.11"/>
    <path class="cls-2" d="M101.74,89.52v-38.69l-2.39-.7c-.8-.3-1.4-1.1-1.4-1.89v-9.87c0-.7.7-1.89,1.5-1.89h20.74c.7,0,1.2.8,1.4,1.3l5.88,14.26,6.38-4.79v1.2l-5.88,4.49c.1.5.2.9.4,1.2l5.58-4.09c.1.3.1.7.3,1l-5.48,4.09.5,1.2,5.98-4.49s.7.2,1.2.3l-6.78,5.09,1.4,3.29,6.88-5.09v1.2l-6.38,4.79c0,.3.3,1,.4,1.2l5.98-4.39v1.1l-5.58,4.19v.1l.5,1.2,5.18-3.89v1.2l-4.79,3.59c0,.2.3.9.6,1.1l4.19-3.19c0,.2,0,1,.1,1.2l-4.09,2.99.5,1.2h.1l3.49-2.59v1.1l-3.09,2.29c0,.4.3,1.1.5,1.3l2.59-1.99v1.2l-2.19,1.7c0,.2.2.9.4,1.2l1.89-1.3v1.1l-1.5,1.1c.1.3.4,1,.5,1.2l1-.7c.1.3.1.5.1.8,0,.1,0,.3-.1.4,0,0-.5.4-.6.5l.5,1.2.2-.2v.9l1.7,4.09-.6-31.21q0-.2-.1-.2c-1.7-.5-3.79-.6-3.79-2.79v-9.57c0-.8.7-1.99,1.6-1.99h18.15c.8,0,1.5,1.1,1.5,1.79v9.97c0,.9-.6,1.6-1.4,1.89l-2.49.7v51.15c0,.9-.7,1.99-1.6,1.99h-16.65c-.7,0-1.3-.8-1.6-1.4l-18.35-44.47c0,1.1.1,5.28.3,6.28.1.2.3.7.3.7v.1c-.1,0-.3.2-.4.5v1.4l.9-.7c.1.3.4.9.4.9l-1.3,1v1.5h.1c.2-.2,1.3-1,1.7-1.2.1.2.3.6.3.9l-1.99,1.5v1.6l2.59-1.89c0,.2.2.7.3.9l-2.89,2.19v.3c0,.5,0,.8.1,1.2l3.29-2.49c.1.2.4.8.4,1l-3.69,2.69v1.6l4.09-3.09c.2.1.4.7.4.9l-4.49,3.39v.5s0,.7.1,1l4.99-3.69c.1.2.3.7.3.9l-5.28,3.99v1.6l5.88-4.39.3.8c0,.1-.1.1-.1.2l-5.98,4.49q-.1,0-.1.1c0,.3,0,1.3.1,1.5l6.58-4.99c.1.1.3.7.3,1l-6.88,5.18v2.09l1.99.7,6.28-4.69c.2.3.5.9.5.9l-5.68,4.19c.3.3.5.6.7,1l5.38-3.89c.2.2.4.8.4.8l-5.58,4.29v1.5l5.98-4.49c.2.1.4.6.5.8l-6.48,4.99v6.38c0,.9-.8,1.99-1.7,1.99h-18.05c-.9,0-1.6-1.1-1.6-1.89v-10.07c-.6.2-1.2.6-1.5,1.2l-3.09,2.39v-1.3l6.78-5.09v.9l1.6-.6ZM91.97,43.75l-2.49,1.89c.1-.8.7-1.89,1.6-1.89h.9ZM89.47,47.24l4.59-3.49h1.7l-6.28,4.69v-1.2ZM129.06,43.75l-1.89,1.4c0-.7,1.1-1.4,1.89-1.4ZM127.06,48.04v-1.2l4.09-3.09h1.6l-5.68,4.29ZM127.06,49.63l6.78-5.18v1.2l-6.78,5.18v-1.2ZM89.47,51.23v-1.2l6.78-5.18v1.3l-6.78,5.09ZM89.47,52.83l6.78-5.18v1.3l-6.78,5.09v-1.2ZM89.47,55.52l6.88-5.09c.1,0,.5.8.5.9l-7.08,5.18c-.1.1-.3-.8-.3-.9v-.1ZM91.87,57.71l-1.1-.3,7.18-5.38c.6,0,1.2.2,1.2.2l.1.1-7.18,5.28c-.1.1-.2.1-.2.1ZM130.65,58.01l7.18-5.38v1.2l-6.78,5.18-.1-.2v-.7s-.2,0-.3-.1ZM93.36,58.21l6.78-5.09v1.2l-6.78,5.18v-1.3ZM93.36,62.3v-1.3l6.78-5.09v1.2l-6.78,5.18ZM93.36,65.09v-1.3l6.78-5.09v1.2l-6.78,5.18ZM93.36,66.59l6.78-5.09v1.1l-6.78,5.09v-1.1ZM93.36,69.28l6.78-5.09v1.2l-6.78,5.09v-1.2ZM93.36,73.27v-1.2l6.78-5.09v1.2l-6.78,5.09ZM93.36,74.86l6.78-5.09v1.2l-6.78,5.09v-1.2ZM93.36,77.65l6.78-5.09v1.2l-6.78,5.09v-1.2ZM93.36,81.64v-1.2l6.78-5.18v1.3l-6.78,5.09ZM93.36,84.43v-1.2l6.78-5.18v1.3l-6.78,5.09ZM93.36,86.03l6.78-5.18v1.3l-6.78,5.09v-1.2ZM115.8,88.62l6.98-5.28c.1.1.3.7.4,1l-6.98,5.18c-.2-.3-.4-.9-.4-.9ZM93.36,90.02v-1.2l6.78-5.18v1.2l-6.78,5.18ZM93.36,92.81v-1.3l6.78-5.09v1.2l-6.78,5.18ZM119.29,97.1l6.98-5.18s.3.5.4.9l-6.88,5.18c-.2-.3-.5-.9-.5-.9ZM120.58,100.19l-.4-1,6.98-5.18c.2.4.4.9.4.9l-6.98,5.28ZM89.47,99.99l6.78-5.09v1.2l-6.78,5.09v-1.2ZM121.38,102.28l-.3-.9,6.98-5.28c.1.4.4.9.4.9l-7.08,5.28ZM89.47,103.98v-1.2l6.68-4.99.1-.1v1.1l-6.78,5.18ZM121.98,103.48l6.88-5.18c.2.3.4.9.4.9l-6.98,5.18c0-.1-.3-.7-.3-.9ZM122.88,105.57l6.98-5.18s.2.6.2,1l-6.88,5.18c-.1-.2-.3-.8-.3-1ZM89.47,105.47l6.78-5.09v1.2l-6.78,5.18v-1.3ZM123.77,107.67l6.88-5.09c.2.3.4.9.4.9l-6.98,5.18c-.1-.2-.3-.8-.3-1ZM89.47,109.46v-1.2l6.68-4.99c.2.3.3.7.3,1-.1,0-.1.1-.1.1l-6.78,5.09h-.1ZM124.57,109.86l6.88-5.18h.1l.6.6-7.08,5.28c-.2-.1-.5-.4-.5-.7ZM90.07,110.66l6.98-5.28c.2,0,.4.2.5.2.3.1.5.1.8.1l-7.38,5.48c-.4,0-.7-.2-.9-.5ZM94.66,111.25h-1.7l7.48-5.58h1.6l-7.38,5.58ZM96.75,111.25l7.38-5.58h1.6l-7.38,5.58h-1.6ZM100.44,111.25l7.38-5.58h1.6l-7.38,5.58h-1.6ZM126.27,111.25l7.48-5.58h1.6l-7.38,5.58h-1.7ZM130.05,111.25l7.38-5.58h1.6l-7.38,5.58h-1.6ZM133.74,111.25l7.38-5.58h1.7l-7.48,5.58h-1.6ZM139.13,111.25h-1.7l6.88-5.18h.1v1.2l-5.28,3.99ZM104.13,111.25l6.58-4.99v1.2l-4.99,3.79h-1.6ZM142.82,111.25h-1.6l3.19-2.39c0,.4,0,1.1-.3,1.4l-1.3,1ZM109.21,111.25h-1.4l2.89-2.19c0,1-.6,2.19-1.5,2.19Z"/>
    <path class="cls-2" d="M177.17,95.83v-7.44l1.4-.93v-29.78l-1.4-.93v-7.44h10.3l9.7,24.86v-16.49l-1.4-.93v-7.44h11.17v7.44l-1.4.93v38.16h-8.91l-9.7-24.86v16.49l1.4.93v7.44h-11.17ZM223.85,95.83l-6.18-6.18v-34.17l6.18-6.18h15.09l6.18,6.18v34.17l-6.18,6.18h-15.09ZM227.3,87.46h8.18l1.26-1.26v-27.25l-1.26-1.26h-8.18l-1.26,1.26v27.25l1.26,1.26ZM263.61,95.83l-7.71-38.16-1.4-.93v-7.44h8.24l6.65,32.84,6.65-32.84h8.24v7.44l-1.4.93-7.71,38.16h-11.57ZM292.33,95.83v-7.44l1.4-.93,6.05-29.78-1.4-.93v-7.44h17.68v7.44l-1.4.93,6.05,29.78,1.4.93v7.44h-8.24l-2.06-10.24h-9.17l-2.06,10.24h-8.24ZM304.36,77.22h5.72l-2.86-14.23-2.86,14.23ZM339.87,95.83v-7.44l1.4-.93v-29.78h-1.4l-.93,1.4h-7.44v-9.77h27.92v9.77h-7.44l-.93-1.4h-1.4v29.78l1.4.93v7.44h-11.17ZM370.13,95.83v-7.44l1.4-.93v-29.78l-1.4-.93v-7.44h24.2v9.77h-7.44l-.93-1.4h-6.05v10.7h10.7v8.38h-10.7v10.7h6.05l.93-1.4h7.44v9.77h-24.2ZM411.22,95.83l-6.18-6.18v-34.17l6.18-6.18h14.62l6.18,6.18v8.71h-8.38v-5.25l-1.26-1.26h-7.71l-1.26,1.26v27.25l1.26,1.26h7.71l1.26-1.26v-5.25h8.38v8.71l-6.18,6.18h-14.62ZM442.73,95.83v-7.44l1.4-.93v-29.78l-1.4-.93v-7.44h11.17v7.44l-1.4.93v10.7h10.24v-10.7l-1.4-.93v-7.44h11.17v7.44l-1.4.93v29.78l1.4.93v7.44h-11.17v-7.44l1.4-.93v-10.7h-10.24v10.7l1.4.93v7.44h-11.17Z"/>
</svg>