<svg xmlns="http://www.w3.org/2000/svg" class="ionicon" viewBox="0 0 512 512">
	<path d="M 128.8 349.2 V 116.4 L 114.4 112.2 C 109.6 110.4 106 105.6 106 100.8 V 41.4 C 106 37.2 110.2 30 115 30 H 239.8 C 244 30 247 34.8 248.2 37.8 L 283.6 123.6 L 322 94.8 V 102 L 286.6 129 C 287.2 132 287.8 134.4 289 136.2 L 322.6 111.6 C 323.2 113.4 323.2 115.8 324.4 117.6 L 291.4 142.2 L 294.4 149.4 L 330.4 122.4 S 334.6 123.6 337.6 124.2 L 296.8 154.8 L 305.2 174.6 L 346.6 144 V 149.4 V 151.2 L 308.2 180 C 308.2 181.8 310 186 310.6 187.2 L 346.6 160.8 V 166.2 V 167.4 L 313 192.6 V 193.2 L 316 200.4 L 347.2 177 V 184.2 L 318.4 205.8 C 318.4 207 320.2 211.2 322 212.4 L 347.2 193.2 C 347.2 194.4 347.2 199.2 347.8 200.4 L 323.2 218.4 L 326.2 225.6 H 326.8 L 347.8 210 V 216.6 L 329.2 230.4 C 329.2 232.8 331 237 332.2 238.2 L 347.8 226.2 V 233.4 L 334.6 243.6 C 334.6 244.8 335.8 249 337 250.8 L 348.4 243 V 247.8 V 249.6 L 339.4 256.2 C 340 258 341.8 262.2 342.4 263.4 L 348.4 259.2 C 349 261 349 262.2 349 264 C 349 264.6 349 265.8 348.4 266.4 C 348.4 266.4 345.4 268.8 344.8 269.4 L 347.8 276.6 L 349 275.4 V 279.6 V 280.8 L 359.2 305.4 L 355.6 117.6 C 355.6 116.4 355.6 116.4 355 116.4 C 344.8 113.4 332.2 112.8 332.2 99.6 V 42 C 332.2 37.2 336.4 30 341.8 30 H 451 C 455.8 30 460 36.6 460 40.8 V 100.8 C 460 106.2 456.4 110.4 451.6 112.2 L 436.6 116.4 V 424.2 C 436.6 429.6 432.4 436.2 427 436.2 H 326.8 C 322.6 436.2 319 431.4 317.2 427.8 L 206.8 160.2 C 206.8 166.8 207.4 192 208.6 198 C 209.2 199.2 210.4 202.2 210.4 202.2 V 202.8 C 209.8 202.8 208.6 204 208 205.8 V 214.2 L 213.4 210 C 214 211.8 215.8 215.4 215.8 215.4 L 208 221.4 V 222.6 V 230.4 H 208.6 C 209.8 229.2 216.4 224.4 218.8 223.2 C 219.4 224.4 220.6 226.8 220.6 228.6 L 208.6 237.6 V 239.4 V 247.2 L 224.2 235.8 C 224.2 237 225.4 240 226 241.2 L 208.6 254.4 V 256.2 C 208.6 259.2 208.6 261 209.2 263.4 L 229 248.4 C 229.6 249.6 231.4 253.2 231.4 254.4 L 209.2 270.6 V 273 V 280.2 L 233.8 261.6 C 235 262.2 236.2 265.8 236.2 267 L 209.2 287.4 V 290.4 S 209.2 294.6 209.8 296.4 L 239.8 274.2 C 240.4 275.4 241.6 278.4 241.6 279.6 L 209.8 303.6 V 313.2 L 245.2 286.8 L 247 291.6 C 247 292.2 246.4 292.2 246.4 292.8 L 210.4 319.8 C 209.8 319.8 209.8 319.8 209.8 320.4 C 209.8 322.2 209.8 328.2 210.4 329.4 L 250 299.4 C 250.6 300 251.8 303.6 251.8 305.4 L 210.4 336.6 V 339 V 348 V 349.2 L 222.4 353.4 L 260.2 325.2 C 261.4 327 263.2 330.6 263.2 330.6 L 229 355.8 C 230.8 357.6 232 359.4 233.2 361.8 L 265.6 338.4 C 266.8 339.6 268 343.2 268 343.2 L 234.4 369 V 378 L 270.4 351 C 271.6 351.6 272.8 354.6 273.4 355.8 L 234.4 385.8 V 424.2 C 234.4 429.6 229.6 436.2 224.2 436.2 H 115.6 C 110.2 436.2 106 429.6 106 424.8 V 364.2 C 102.4 365.4 98.8 367.8 97 371.4 L 78.4 385.8 V 378 L 119.2 347.4 V 352.8 Z M 70 73.8 L 55 85.2 C 55.6 80.4 59.2 73.8 64.6 73.8 H 70 Z M 55 94.8 L 82.6 73.8 H 92.8 L 55 102 V 94.8 Z M 293.2 73.8 L 281.8 82.2 C 281.8 78 288.4 73.8 293.2 73.8 Z M 281.2 99.6 V 92.4 L 305.8 73.8 H 315.4 Z M 281.2 109.2 L 322 78 V 85.2 L 281.2 116.4 V 109.2 Z M 55 118.8 V 111.6 L 95.8 80.4 V 88.2 Z M 55 128.4 L 95.8 97.2 V 105 L 55 135.6 V 128.4 Z M 55 144.6 L 96.4 114 C 97 114 99.4 118.8 99.4 119.4 L 56.8 150.6 C 56.2 151.2 55 145.8 55 145.2 V 144.6 Z M 69.4 157.8 L 62.8 156 L 106 123.6 C 109.6 123.6 113.2 124.8 113.2 124.8 L 113.8 125.4 L 70.6 157.2 C 70 157.8 69.4 157.8 69.4 157.8 Z M 302.8 159.6 L 346 127.2 V 132.6 V 134.4 L 305.2 165.6 L 304.6 164.4 V 160.2 S 303.4 160.2 302.8 159.6 Z M 78.4 160.8 L 119.2 130.2 V 137.4 L 78.4 168.6 V 160.8 Z M 78.4 185.4 V 177.6 L 119.2 147 V 154.2 Z M 78.4 202.2 V 194.4 L 119.2 163.8 V 171 Z M 78.4 211.2 L 119.2 180.6 V 187.2 L 78.4 217.8 V 211.2 Z M 78.4 227.4 L 119.2 196.8 V 204 L 78.4 234.6 V 227.4 Z M 78.4 251.4 V 244.2 L 119.2 213.6 V 220.8 Z M 78.4 261 L 119.2 230.4 V 237.6 L 78.4 268.2 V 261 Z M 78.4 277.8 L 119.2 247.2 V 254.4 L 78.4 285 V 277.8 Z M 78.4 301.8 V 294.6 L 119.2 263.4 V 271.2 Z M 78.4 318.6 V 311.4 L 119.2 280.2 V 288 Z M 78.4 328.2 L 119.2 297 V 304.8 L 78.4 335.4 V 328.2 Z M 213.4 343.8 L 255.4 312 C 256 312.6 257.2 316.2 257.8 318 L 215.8 349.2 C 214.6 347.4 213.4 343.8 213.4 343.8 Z M 78.4 352.2 V 345 L 119.2 313.8 V 321 Z M 78.4 369 V 361.2 L 119.2 330.6 V 337.8 Z M 234.4 394.8 L 276.4 363.6 S 278.2 366.6 278.8 369 L 237.4 400.2 C 236.2 398.4 234.4 394.8 234.4 394.8 Z M 242.2 413.4 L 239.8 407.4 L 281.8 376.2 C 283 378.6 284.2 381.6 284.2 381.6 Z M 55 412.2 L 95.8 381.6 V 388.8 L 55 419.4 V 412.2 Z M 247 426 L 245.2 420.6 L 287.2 388.8 C 287.8 391.2 289.6 394.2 289.6 394.2 Z M 55 436.2 V 429 L 95.2 399 L 95.8 398.4 V 405 Z M 250.6 433.2 L 292 402 C 293.2 403.8 294.4 407.4 294.4 407.4 L 252.4 438.6 C 252.4 438 250.6 434.4 250.6 433.2 Z M 256 445.8 L 298 414.6 S 299.2 418.2 299.2 420.6 L 257.8 451.8 C 257.2 450.6 256 447 256 445.8 Z M 55 445.2 L 95.8 414.6 V 421.8 L 55 453 V 445.2 Z M 261.4 458.4 L 302.8 427.8 C 304 429.6 305.2 433.2 305.2 433.2 L 263.2 464.4 C 262.6 463.2 261.4 459.6 261.4 458.4 Z M 55 469.2 V 462 L 95.2 432 C 96.4 433.8 97 436.2 97 438 C 96.4 438 96.4 438.6 96.4 438.6 L 55.6 469.2 H 55 Z M 266.2 471.6 L 307.6 440.4 H 308.2 L 311.8 444 L 269.2 475.8 C 268 475.2 266.2 473.4 266.2 471.6 Z M 58.6 476.4 L 100.6 444.6 C 101.8 444.6 103 445.8 103.6 445.8 C 105.4 446.4 106.6 446.4 108.4 446.4 L 64 479.4 C 61.6 479.4 59.8 478.2 58.6 476.4 Z M 86.2 480 H 76 L 121 446.4 H 130.6 Z M 98.8 480 L 143.2 446.4 H 152.8 L 108.4 480 H 98.8 Z M 121 480 L 165.4 446.4 H 175 L 130.6 480 H 121 Z M 276.4 480 L 321.4 446.4 H 331 L 286.6 480 H 276.4 Z M 299.2 480 L 343.6 446.4 H 353.2 L 308.8 480 H 299.2 Z M 321.4 480 L 365.8 446.4 H 376 L 331 480 H 321.4 Z M 353.8 480 H 343.6 L 385 448.8 H 385.6 V 456 Z M 143.2 480 L 182.8 450 V 457.2 L 152.8 480 H 143.2 Z M 376 480 H 366.4 L 385.6 465.6 C 385.6 468 385.6 472.2 383.8 474 Z M 173.8 480 H 165.4 L 182.8 466.8 C 182.8 472.8 179.2 480 173.8 480 Z" fill="currentColor"/>
</svg>